<mxfile host="Electron" agent="Mozilla/5.0 (Windows NT 10.0; Win64; x64) AppleWebKit/537.36 (KHTML, like Gecko) draw.io/26.2.2 Chrome/134.0.6998.178 Electron/35.1.2 Safari/537.36" version="26.2.2">
  <diagram name="编辑器蓝图类型" id="o-hqp_tq3Qc4abrZcXei">
    <mxGraphModel dx="985" dy="580" grid="1" gridSize="10" guides="1" tooltips="1" connect="1" arrows="1" fold="1" page="1" pageScale="1" pageWidth="827" pageHeight="1169" math="0" shadow="0">
      <root>
        <mxCell id="0" />
        <mxCell id="1" parent="0" />
        <mxCell id="jE23oCoDrlCcbpvQbo-8-4" style="edgeStyle=orthogonalEdgeStyle;rounded=0;orthogonalLoop=1;jettySize=auto;html=1;exitX=0.5;exitY=1;exitDx=0;exitDy=0;entryX=0.5;entryY=0;entryDx=0;entryDy=0;" edge="1" parent="1" source="jE23oCoDrlCcbpvQbo-8-1" target="jE23oCoDrlCcbpvQbo-8-2">
          <mxGeometry relative="1" as="geometry" />
        </mxCell>
        <mxCell id="jE23oCoDrlCcbpvQbo-8-1" value="编辑器工具" style="ellipse;whiteSpace=wrap;html=1;" vertex="1" parent="1">
          <mxGeometry x="354" y="20" width="120" height="80" as="geometry" />
        </mxCell>
        <mxCell id="jE23oCoDrlCcbpvQbo-8-14" style="edgeStyle=orthogonalEdgeStyle;rounded=0;orthogonalLoop=1;jettySize=auto;html=1;exitX=0.5;exitY=1;exitDx=0;exitDy=0;entryX=1;entryY=0.5;entryDx=0;entryDy=0;" edge="1" parent="1" source="jE23oCoDrlCcbpvQbo-8-2" target="jE23oCoDrlCcbpvQbo-8-12">
          <mxGeometry relative="1" as="geometry" />
        </mxCell>
        <mxCell id="jE23oCoDrlCcbpvQbo-8-15" style="edgeStyle=orthogonalEdgeStyle;rounded=0;orthogonalLoop=1;jettySize=auto;html=1;exitX=0.5;exitY=1;exitDx=0;exitDy=0;entryX=1;entryY=0.5;entryDx=0;entryDy=0;" edge="1" parent="1" source="jE23oCoDrlCcbpvQbo-8-2" target="jE23oCoDrlCcbpvQbo-8-13">
          <mxGeometry relative="1" as="geometry" />
        </mxCell>
        <mxCell id="jE23oCoDrlCcbpvQbo-8-2" value="控件" style="rounded=1;whiteSpace=wrap;html=1;" vertex="1" parent="1">
          <mxGeometry x="170" y="140" width="120" height="60" as="geometry" />
        </mxCell>
        <mxCell id="jE23oCoDrlCcbpvQbo-8-9" style="edgeStyle=orthogonalEdgeStyle;rounded=0;orthogonalLoop=1;jettySize=auto;html=1;exitX=0.5;exitY=1;exitDx=0;exitDy=0;entryX=0;entryY=0.5;entryDx=0;entryDy=0;" edge="1" parent="1" source="jE23oCoDrlCcbpvQbo-8-5" target="jE23oCoDrlCcbpvQbo-8-8">
          <mxGeometry relative="1" as="geometry" />
        </mxCell>
        <mxCell id="jE23oCoDrlCcbpvQbo-8-5" value="蓝图" style="rounded=1;whiteSpace=wrap;html=1;" vertex="1" parent="1">
          <mxGeometry x="530" y="140" width="120" height="60" as="geometry" />
        </mxCell>
        <mxCell id="jE23oCoDrlCcbpvQbo-8-6" style="edgeStyle=orthogonalEdgeStyle;rounded=0;orthogonalLoop=1;jettySize=auto;html=1;exitX=0.5;exitY=1;exitDx=0;exitDy=0;entryX=0.5;entryY=0;entryDx=0;entryDy=0;" edge="1" parent="1" source="jE23oCoDrlCcbpvQbo-8-1" target="jE23oCoDrlCcbpvQbo-8-5">
          <mxGeometry relative="1" as="geometry" />
        </mxCell>
        <mxCell id="jE23oCoDrlCcbpvQbo-8-7" value="" style="shape=image;verticalLabelPosition=bottom;labelBackgroundColor=default;verticalAlign=top;aspect=fixed;imageAspect=0;image=data:image/png,iVBORw0KGgoAAAANSUhEUgAAAKgAAABnCAIAAAAbl56CAAAR1klEQVR4Ae2di1eSyf/H97+p1orSLsNFzBJTIAMlES3UDCnzKxiFZvhdL1G05bc2NivLxU61ZlqpaxdLQM+y+7Ulddc62lbUoXArRR4vxwtd1l9fZ5nfI5CyLiro8z4cnJlnZpj5vJ65PeqHL8IILUgLfBEWFgYILTALhIWFEeAXGPPx7hLgFyJ1AAABngC/QC2wQLtNjHgC/AK1wALtNjHiCfAL1AILtNvEiCfAL1ALLNBuEyOeAO9VCywKIM3ay6sNXyiVzdSInzXqiwJIC4WVV/tJgPeqOf2nMgK8/7DyaksJ8F41p/9URoD3H1ZebSkB3qvm9J/KCPD+w8qrLZ098EuWrQS0kH/4Wrx0hetB0asGWSiVzR74oDXkhoaGx+Pq6OgoKirKy8s7efJkZ2cnTJzyvb6+nhS0hgDvlXtzVsH/+OOPnQ598803CoWiuLjYkTD1T71eT4D3CvUZ/Js713EZuBo0NTV1OFRUVJSdna1Wqx0JU//UarXLA1e71uxqi+3bt8fHx6P08PDwgoICFEWBuLi4nTt3wmhkZGQUTnQ6HaaHhYXxHdq8eTMAIDo62pHAn8ZfpoeHh6Pi+EB4eDhqGAAgPz8/NjYWpbDZbIVCgaIoQKfT8/PzyeMCADAYDLVaja5OEpi9Eb9y1Vq9Xv/IoSNHjshkMoVCcc1jnT592kPwRqMxNzcXAMDlcoVCYWpq6ujoqFgsFgqF27ZtQ+a4dOnSyZMnYbSzs7OlpcUwrt7eXqlUCtMLCwvfvn3b2tra0dFhNBoBAGaz+dGjR62trTabrbCwEGarqqqaZMqqqqpCH6pWqzEMezJRGIYVFxejPACA5uZmmUxGJpNZ40pOTh4dHeVwODBKpVJhZoVC0dHRAQA4c+ZMaWkpl8vt7u7G1/O58KyC12q1Dx1SKpUZf1/LVq6acsRzudy+vr6wsLD09HSdTvf48eNmnN6/fw8A2LdvX3d3t91u7+vr6+7u3rNnT2dnJ5/Ph2ZqamrCg798+TIAID4+HoHncrmfct65cweB37x5Mxq+ycnJIyMjKMrn8+FUAStXq9U3btyImKiqqioEftOmTYWFhSaT6cqVK4mJiR8/fjRNlN1uFwqFsLbm5uavv/4aAPDq1ausrCyhUGi1WmHdTlMIzI/eZw/8iqA19+7da3coPz8/zUUHDx5Uq9Vyudzlyl8JnoC/e/fusXEZDAadTieTyVBvAQB2ux0AEBwcnJ6ebjaboY2Cg4N1Ot3Tp0/hOHz+/LlYLIal8vPzh4aGent7MQxrbm4GAJhMJgzDent7h4eH8/Pz8ZXDMIPBGB4edk2HKWq12mq1Oia+v35arVYEPi4urrKy8s2bNwaDIT09fXBwEAAAh/j69ethAyB4gUDw8eNHBoMhk8lGR0e7u7utVuvHjx+7x/X8+fPPtWFW13hS4Oo7d+786lBubq4Ip/T09Nu3b//666+NjY0SiQRdSU1NLS0tvTwupVK5dEXQ5CM+LCzszz//fPjw4fDwcFJSkk6nGxgY6MUJ2hEAcOPGjdOnT5eVlYWHhx85cuS8i0JDQ50Mt2vXrlu3bgEAoqKiqquraTSaUwYYnRJ8XV0db6Jqa2sReFgJnOrhEr53797ff/+dQqEYjcbS0tLk5GTYtvv374+NjYWEhHR1dcFb0BenelLg6tu3b7c5lJOTk4xTWVlZW1ubXq//NBBxyckSicRRoq22tnZK8AAAoVB47dq12tpaAIBOp5PL5fSJIpPJHA6nr6+PzWY/fvw4JiZm7969vb298ISZl5dnMpmKi4vh/q6iogLeNjabbXR0dGRkZHBw0Gaz2e12DMPMZrMr+ynBv379Grf4/C/4xx9/uILPz89PSko6fPhwf38/3IQyGIz29na4Y8jMzLTZbGNjY0Kh0GAwUCgUuKfxuTV++cpVdXV1LQ7J5fKtOP3yyy8tLS0FBQUwbfv27RcuXNi6devu3bsdJVqqq6s9AZ+amvrq1auIiAgGg6HT6ZqamoaGhj58+NDf3z80NPTu3Tsej5eYmAjXTbvdbjabs7OzLRaLVqu9OS6r1Yo/FLDZbKVSaTKZ7ty5ExwcfPHixba2NplMhnb+TuynBH/79u34iaqrq8ODF4lEZrN5eHhYqVR+++23AoEAfQSDwcjIyAAA8Pl8iUQyNjZGoVDQcWTHjh1WqxVF161bhwo6BWZvjV+2Iqi2tvaBQ5/2U3ycDAbDgwcPjh8/zufzt27d+sMPP2i1Wj6fn5qa6ijx4Nq1awGkwMmn+oiIiN7e3mfPnr18+TIvL6+lpaW+vl6j0ZhMptzcXI1G82lR5fF4yAqdnZ1RUVEAAIvFIpFIhON69OgRBB8bG9vT02Oz2err69HBDwCQmpra0NCAYdizZ8/why5Y7ZTgu7q6DBPV1dWFwItEov7+fgzDcnJyAAAKhaJ2og4ePAg/iEqljo2NcTgcs0NdXV0fPnxwxMywBtRZfGBWwVdXVxsdysjIiMGptLQUXqmtrW1sbDQajadOnYqJiUlJSXGUMFZVVU0Jnk6nq9VqkUgEd0MvXrwoLy83m81DQ0MdHR1ms3lgYIDH49FoNIFAkJ2d/ebNG6PRuG/fPsu4oMlGRkbQiBcIBK0OGQyGT9sig8EAE9ra2uAZGm9QeJh2u7ljMplisbiyslKr1Yon6u7du9evXxeLxREREZ9WKDqdDtd4AEBCQoJ8XO/fv8/NzZXL5YmJiXjw+E/3xTV+KSnw+vXr9x1KS0uDM1JcXJxCodi0adP58+cdF+/X1dXx+fyoqCihUIgSKyoqvly+cvIRTyaTBQKBSqXS6/UlJSUDAwNHjx69cePGq1ev4Dnq6dOnPB7vk9lfv35tMBgwDDtw4ACdTrdYLBwOh0qlbty48bffflMqlfAMxuVyu7q64uPjxWIx3BgODg6KxWJ4unM7pD434jMzM9FN3N7eDsNtbW0tLS0oPS0tDYJE4BFXu93utN+EIx5l8NE1fikpsKqqCm1qxGIxk8nk8Xjnzp07e/asVCplMpnZ2dnHjh1TKBQsFos5roSEBFSkvLx8SvACgWBkZOTnn39WKpV5eXmtra2HDh3SaDQdHR379+8vKSlxO9U3NTXZ7Xar1drT02MymQYGBhoaGuCJjsvlvn79Ojk5GZ2sBgcH4Q60tbUVgg8NDcVvSNPS0kZHR/EpaB8OABAIBJWVlRiGsVgsAMCJEyf6+/u1Wm1OTg7cNJDJZADAgwcPZDJZcHAwWg/fvXuXmJgIo/AO8A/wActXXr169b8OJSUlcTickpKSs2fPqlSqzMzMiIiIcBfx+XxHif9evnx5ybKpfzsXHBwMB0FRUdHRo0cheJhy6dIlDMMYDAYaJXCN5/F4LBYLPQ4zGo1oqudyucPDw83NzUajEY14o9HY3Nxss9kg+ISEhN+mUkJCAplM7uzsxDDsypUrHA4HtYHJZBYVFb18+bKpqQneGTab7f379/Hx8dHR0W4rFolE8HA/NjaG6vHRER+wfGVFRcVP4yooKGCxWHjq4eHh690pJiYGFvnpp58uXrzoCXi8ISgUCnwIDxM3btwIF1GUJyYmBvFGiXK5HD32otFoW7ZsAQBQKJS4uDgAQFxcHDw7cTicDRs2oFKeBLhcLizrmplMJqM7cuPGjWw22zWPawq6QeElGo3mutl0LTWrD3C+XLbi4sWL586d27dvX0RExNlxqVQqqVS6YcOGiSft/49xOBy0/71w4cLfBe+2z0TirIJfspTEYrFoNBqPxztz5gyc4aVSaUhICOXzYrPZPzqk0WgWL3XzfxoEyGlYYPaOc4sDSBQqtbS09NKlS5C6RCIBZEpg0KpJXqtWr965c9fu9PTd6enc6GgC/DQYuy0ye+AXBZCSU0T/OX5iydIVcfEJ0szMFe7+nMb1tDZlituOEYmTW2BWwW+Jiz92rCh43YZtwqSozdwpiXqYYfIeElfdWmBWwS9eStqeIpLL5fw4gdun7h6SdsrmtmNE4uQWmFXwTsC8FZ28h8RVtxYgwLs1y/xPJMDPf8ZuezhT4L+oGJu1l9uOEYmTW4AAP7l95u1VAvy8RTt5x2YK/OSfSlydcwsQ4Occwdw0gAA/N3af808lwM85grlpAAF+buw+559KgJ9zBHPTgJkC763n8J7UMzeW8/NPJcD7OcDpNp8AP13L+Xk5AryfA5xu8wnw07Wcn5cjwPs5wOk2nwA/Xcv5eTkCvJ8DnG7zCfDTtZyfl/Nd8CminRaL5Y+JSs/IdH2k4+cI5qb5vgv+33kFvzv02KHDR44S4L1yp/gKeDItJCND8hVOJSUlyF0ACuQXHPQE/DzwbAkAYLFYyP8iAKCoqAj+Sz0Cz2Qykbsb1wCTyUQ5XQO+Aj4xKVmhUGzhxzHZUUx2lHjnLqXykM4hrUPZOQpPwPu1Z8vIyEj1uMrLywcGBmAYescrLy+H0U2bNkGHd2/fvoVOXJze3759+8lbkytvlOIr4FN2iESpYjzUnWnpNTU11RMlyZTh88Aw6gwM+LtnSxaLpRlXTU3N4OAgDGs0GgzDampqYBT6VTCZTNDTYXZ2dkNDg3Rc0JnKJ+etvgJ+FaDt2Ze1V56NXumSTFLQWggvZYcoZYcID3U1mfYvSaZ0jwy9JJl7AJWOz+MWvL97tkT3cWRkZFlZWWRkJAAgNjb27t27MIwyQPAcDsdqter1+srKyvb29idPnkBnf74C/ljRceSGCwWke/Z+DjwCHMXlpaTuogSHohSnADIE/H//+eHZEjokvXnz5qFDh6Afzubm5iPjQk5aTSaTSCR68eLF999/b7FYVCrVmzdvUlJSfA78J8dDjx49eoiT4t9fhYSGAVrIzl1pTiN+UQBp5WpyyfnvdPrG8oqrayhuxjq8A/Dg541ny76+PgAABB8TE4NhmEajKSsr02g0yHMyHPFsNlsulz99+nR0dPTJkyfQk6cPTfXKQ6qfXVRUVCQUCuFe3hV8bl6BTt94paISUffkq0nmgWdLAAAefFNT03fffadSqaqrq/F3uclkKiwstFgst27dOnbsWHR0tFQq1Wq1GIZlZWX5ylSvyP2q3kXSPbJJRnz9vQadvjFBmAxH9oqgtYXKw07zvNNXjM4Dz5YQrUqlAgCoVKq0tDQ2m02lUkNCQs6dO4f3nIw2dwCAgoICi8XS3t6+bds2KpXqQyN+978klS6KjUuAIF03d4sCSHU3b+n0jZLxfQApaM13mguV165PDn5+eLaMioqCrsfdvkMfrHj/5efPn29paTlx4sT+/fvhl2b4EPglS1fQ1zPwr+B1GxBFt+APHjqi0zfq9I2aCxdraut0+sac3K9QERTAz37zw7Ml9ExKpVIPHDhQX19PpVLr6+sPHDhApVK7u7vh1yTgwZPJZJFIdPXqVQzDoP9yHwKPOLkNpOwQiXfuQpdWk2m7dqcvCiAdPnIUstfpGy99fyVwDRnlQQE8+Hng2ZJKpQoEgp6entDQ0Ly8vHv37oWGht67dy8vLy80NLSnp0cgEEDffCaTCZ3s4fn+6tWrlZWVGo2mpqbGV9Z4xMltYOu2xNzc3Ghe7KIA0moyrbj49NmzZ7fvEC1eSkrcLpJnH0hJ3bVkmRtHtk5rPPz2CXgr+Klny6ysrL6plJWVBUc8epaHHvDBQHl5uX+AD1pLSUreTgpaswpQi0//j7pKpcqQSDxxlYMf8U5hP/Vs6dSLz0V5PN7nfObT6XS8d3bXGnzlkS2cBoLWUvDUSYFuvl7QdcJw7RWRMqUFfAi8E3XPveBN2Ukig6sFfAL8l8sDwyPZp04Voxnec+qua7xrJ4kUVwvMPfgVq8C58+dxfk6lf4s6Ad4Vqicpcw/+n/s59aSfRB4nC8w9+H/u59SpS0TUEwvMPfh/7ufUk34SeZwsMPfgXY9nfzfFqUtE1BMLEOA9sdI8zDNT4GfNreUXFRO+jWceIpqZLhHgZ8auPl8rAd7nEc1MA2cK/My0lqjVaxYgwHvNlP5VEQHev3h5rbUEeK+Z0r8qIsD7Fy+vtZYA7zVT+ldFBHj/4uW11hLgvWZK/6qIAO9fvLzWWgK810zpXxUR4P2Ll9da+xf4MEILzwL/B7xODlBhNk4lAAAAAElFTkSuQmCC;" vertex="1" parent="1">
          <mxGeometry x="330" y="130" width="168" height="103" as="geometry" />
        </mxCell>
        <mxCell id="jE23oCoDrlCcbpvQbo-8-8" value="Asset Action Utility | 资产操作工具" style="rounded=0;whiteSpace=wrap;html=1;" vertex="1" parent="1">
          <mxGeometry x="610" y="223" width="190" height="40" as="geometry" />
        </mxCell>
        <mxCell id="jE23oCoDrlCcbpvQbo-8-10" value="Actor Action Utility | Actor操作工具" style="rounded=0;whiteSpace=wrap;html=1;" vertex="1" parent="1">
          <mxGeometry x="610" y="280" width="190" height="40" as="geometry" />
        </mxCell>
        <mxCell id="jE23oCoDrlCcbpvQbo-8-11" style="edgeStyle=orthogonalEdgeStyle;rounded=0;orthogonalLoop=1;jettySize=auto;html=1;exitX=0.5;exitY=1;exitDx=0;exitDy=0;entryX=0;entryY=0.5;entryDx=0;entryDy=0;" edge="1" parent="1" source="jE23oCoDrlCcbpvQbo-8-5" target="jE23oCoDrlCcbpvQbo-8-10">
          <mxGeometry relative="1" as="geometry" />
        </mxCell>
        <mxCell id="jE23oCoDrlCcbpvQbo-8-12" value="Stack Box | 堆栈框" style="rounded=0;whiteSpace=wrap;html=1;" vertex="1" parent="1">
          <mxGeometry x="10" y="223" width="190" height="40" as="geometry" />
        </mxCell>
        <mxCell id="jE23oCoDrlCcbpvQbo-8-13" value="Grid Panel | 网格面板" style="rounded=0;whiteSpace=wrap;html=1;" vertex="1" parent="1">
          <mxGeometry x="10" y="280" width="190" height="40" as="geometry" />
        </mxCell>
        <mxCell id="jE23oCoDrlCcbpvQbo-8-16" value="" style="shape=image;verticalLabelPosition=bottom;labelBackgroundColor=default;verticalAlign=top;aspect=fixed;imageAspect=0;image=data:image/png,iVBORw0KGgoAAAANSUhEUgAAAccAAAA5CAIAAADMcXc4AAAgAElEQVR4Ae19/VNTV/7/519w/KEzJzHyEBEMoAiYGx6iYECiIcQIMSCClCIgEQElIgiimJWnIOUhIhBFCCEChhASIAmB2NWtu7qz21bb2e+sO3WmdtqOjlRbt9p2/GLey/GSwBYLfZj1vn64nHPu+5xz7+tyX/d93+fcnP9DFCgGKAYoBigGlo+B/yM39dZbb61cuXIFBYqBpTGwcuXKt956i/yvRaUpBt4cBl6p6ltvvbVixYqAgACCAsXA0hgICAhYsWIFJayIwhvJwCtVXblyJSWpSxMTqvYrBgICAlauXPlG3lPUSb/pDLxS1RUrVry6J6gUxcCSGVixYgWiQDHw5jFAqSpB4RdigFLVN09PqDN+ycCSVPXFAoC7tIMEKCFvORzO4cOHcUl5eTmfz8/PzxcKhbgQEkVFRRkZGbgwPz//wIED6enpUVFRuJAgCGyWmJi42w3R0dFkYyr9KzDwuqqakJCwZcsWtGjIZDIGg+FizmAwZDIZLszPz9+wYQPO4gRzYdBoNGy2e/fu4OBgnGWxWGKxGGdxgsFg7N69m+YEQojJZO7fvx/vnTfh4eHh7+9PEASPxxMKheROyfYZGRkBAQHkkoXSaWlpoaGhPj4+8x4h1MrLy1u9evVCLbxWeWpq6vr16+et4uXlFbEwOBwOrhUdHR0ZGYmzHA6Hy+XirHtiWTp1b3bektjYWJf/RhqNxmazpVKpl5fXvFVw4VJVlXDDixcvXMo6OjpcSgiCCA8Pf/r0KZTHxsZ+99138fHxV65cGRgYcDHW6XQ1NTW4sKurq729/fLlyzabDRcSBIHNpqen7969+//m4tChQ2RjKv0rMLAYVaXRaF5OeHt7Dw0NicViyMIWa01eXl75LLZv346csNls7v/fXl5eNpsNDFJSUhwOx+Dg4GUnqqqqoBwhZDKZLG6w2WwOh4MsFk1NTQKBgEaj+TkRGRlptVoDAwMhS6fToUGxWHzhwgWE0IEDB/Lz89evX6/X62EX3kZERJhImJqa6unpaWtrq6+vr6ysxJ2KxeI9JIyNjR04cAAXJCYm4gZdEi0tLfHx8d7e3sPDwwtpk8ViYTKZLhURQnK5nEyGw+EgZ/Pz812qbNiwwWq1+vn5uZRDNjY21mg0npkPdXV1o6OjuFZtbW1SUhLONjU1paen46xLYumdikQi8nnZbDa73U4usVgsfD4f+i0oKMjKykIIRURE1NTUdHV1jY2N9fX1VVZWkp8ELgcJ2WVQ1Q4SCIL4GapaX1//1VdfnT17tr+//9GjR2edEIvFYWFhKSkpY2NjarU6MTGRcELtBJfLPX78eHx8PEEQLmbT09M7duwAY2r7GzKwGFVls9mTk5MktXmVnJqawloTExMjnEWwE3w+3263C4VCvhM0Gi0wMFChUGBVTU9Pt9vtKSkpdDp9xjHVaDTkGxi5gcvl9vb2HjlyBLSSxWJJpdKenp6jR4+Gh4dPTU1p5sJms2G3q6mpKS0tDSGk0+kSEhLCwsIMBsNaJ3x8fHBX+CHBZDItFgsuJydkMlnJLBQKxdjY2Gzu5d+DBw8ihIKDgxVuMBgMbW1tCoWitbVVoVCQXWzcvsViYbFYkBWLxXK5HO/C5QghLL5+fn5YQQICArSzMBgMExMTs7lXf0NCQhBCsbGx586dwy2TE2vXrsWqqlarbTbbwMCAVqsNDw/fuHHj1NRUdna21Indu3cjhJa9U/LBlJSUgG6SCxFCDAaDzWZXVFQUFxdv2rRJIpG0trYGBwe7vxi5VMTZ5VFVwgnwSRejqklJSV1dXd9///3FixczMzMfPnx4586d7u5uq9X62WefdTuxe/duHo93+/btx48f379/32KxpKSktLa23rlz5/Hjx//+97/v379/8uRJeIcim01PT588eXKahO7ubjhCavtrMrBIVdVqtWg+6PV6rKou+6VSqVKpnJqaamhoUCqVExMTq5wwm83BwcE2m43BYBw7dmzXrl1qtTogIKCtre348eMujeCsp6dncXHx0NCQQCDAhaGhoaWlpYODg2fPno2JiQEtAMEFB1mj0YCqbtq0aUZzmUymQCCY8WT1er3BYJicnNQ7odFooM0LFy4MDw9brdbh4WGj0Tg1NTXshMViMRqNfX19uOs1a9ZwnXjnnXe6u7shzeVyvb29wcbHx0fkhra2thMnTuBiUPPKyspTs/Dy8rJYLBAeEYlEY2NjW7duhQZpNJpWq8WhA6yqBw8ebGxsBBs6nb7eiYSEBLvdvnnzZoFAkJOTA4WwBd2JjY2daWHuM+g/Oa1Wi1XVZDJBrebm5ujoaJVK1dLSUurEjD9ot9sRQsveqUAgKJjFyMhIRUXFbO7lXyDE39+/s7NzZGRkcHCwvb1dIpGcOXMGX53FJH4NVSXcsHPnzhkGnz9/3tzcbLVaf/zxx97eXoIgDh48eO3aNRfze/fugSzKZDLwwycmJrZs2bKQ2fT0dHx8fFRUVHl5+fvvvx8VFRUZGeliTGV/BQYWqap6vV4wH+CuA9fsDAllZWUIodWrV8ONhxAym83gBjY0NKSlpeEIwIYNGw4fPmwwGLKzs9HCGBwcrKqqIjuV2BYiAAwGQyKRCASCrq4uOp3e2tqan58fGRkJ8trc3OxwODw8PPr7+8HDmjcCgBDy8vIaHh6GwCv2VS9fvuzyVi4UCk0m07m5GB0djY2NxQcWERFRTAJCqLCwsKCgACG0adOmVatWgaVYLN61a1dSUpLNZvP09LRYLAaD4dixY0ajMS4uDreGEJJIJJcvXwYaQVUZDIZer8dSC8Z0Ov3ixYslJSUIoV27dtXW1pIbgXRsbGxHR4ffAvD19QUzk8kECaVSWVZWptPpPD09ocTX1xdfRNDW5eq0tLRUqVRmZWVpNJoTJ05kZWXNKGZ7e3tWVpZKpcrLy4MDmNm2t7eXl5cjhKRS6fj4OASRYLt3715sNm9ieVQVxwDmjQAQ8wHHVWUyWX9//8OHDz/55JN79+49efLkk08+uX37NlQSCoUvXrx4/vx5WloalJSWlv7lL3+pqKjQ6XQffPCBSCQiCIJsNj09LRAI4uLiTp48eePGjbi4OC6XO98hUGW/LAOLVNWxsbHa+WC1WsFX9fHxEQqFDQ0N9fX1QqEQ5IDFYhmNRuSE2WyGREhIyNq1a202G51On7mxL1++fOTIkXXr1sXGxp4+fRpsvL29o+bC4XDw+XxyGfYKm5qaJBJJeHh4amqqyWSKjo5GCK1Zs6ajowPEffv27Uaj0eFwhIWFNTQ0gCq5q6qXlxefzxcKhWazmc/ni0Qim83Gd8JgMIhEIj6fj2PEQqHw4sWL2OuEhEajIauqVCpVq9V79+5NT093OBxw8ysUCoSQVquF44TzRQjxeLyWlhZ4ta+qqtJoNO4h0VWrVhmNRvDWQVX37t3b39+PY8fQWk5OjsPh+MMf/lBeXt7S0tLf318+i7CwMLCZGedxOBwXF0BnZyeYkVWVx+OxWKywsDDQXD8/P/zUQQgtY6elpaWZmZkIIaVSmZ6ezuFwZDJZaWkpQqioqAirqre3N0Rd4+Pj9+3bB+FgFovFZDKbmppcnjSYZ5xYBlUl5uLFfJhr8jKHVZUgCJVKNTg4GBcXV1JSAjq4bds2qFJbW/vDDz/YbLY7d+60trbeuHHj8ePHz549s1gszc3NOTk54eHhBEGQzaanp5OTk+/evfvFF198++23d+/eLS8vdz8AquSXZmCRqrrICEB3d/e2bduYTKaHhwdCaPPmzd3d3cgJ/FKJEEpMTLTZbOHh4UVFRTmzOHXqVF9fX05OTmhoKJvNbpkLh8Nx7tw5chmbzUYIbdmypa+vD0JP2dnZoaGh0B0I67Zt22ZGvUJCQuLi4hwOB51O958Fl8s1GAyzOX8PD4/169crlcqGhgabzaZUKhsbGycnJ5VOWCyWxsZGpVKJwx1CoVCr1ebNxcDAgIuqgobS6XRQVQ6Ho9PpYmNjdTodPk5IVFdXgxBYLJbQ0FCTybRx40YXG4TQ1q1b16xZg+OqTCYzIiKCbBYXFzc+Pj45OZmeni6VSo8fP37hwgWpE11dXSKRCIwFAkFnZ+faBYCdULPZbHJiYmIiKioKIVRWVnbq1CmEkL+/P9bc5e2UrKparbazs7O/v99dVZOTk202W2VlpV6vP3TokFwub2hoSEhIoNFoJpNp3bp1ZFrc08uvqoQb3COt7qo6NjaWkZFRV1f397//PSMjY9++fWBz//79a9eu1dTU5OTknD59+tChQyKR6NmzZ1FRUQMDA5cvX3Y3w6NVcrncPZ7gdnRUwS/FwCJV1Ww2l8yH8fFxLDQcDufKlSs0Gq2srAxGGPbv319RUYEQotFo4Kv6+flVVVXpdDoYR8okoaKiQqvVZmZmzjuG43A4XN7BQbVn1MdoNIJYiMXiyrlITk5GToCukcdV+vv77Xa7dhZYbhYfARgaGjozF0aj0UVV9Xr92bNnGxsbQVURQnq9vru7e9++fXBgsCUIoqenB1xOcEKzsrIuXrwIDyeE0MwdNPMcIsPhcJCzMNkmODgY4gbQiEsEQKlU4tOUSCQ1NTVSqXRsbMw0C4vFEh0dzWAwsBNqMplWO9HQ0ACq6uvra7FYAgICgoKCYBLFsndKVlUY7pdKpS6qSqPRenp6qqurs7KyeDze6dOnMzIy4uPjOzs7d+3apVKpyPTOm14GVe0ggXCCVPByTtW8qioQCL7//vuPPvooNTVVpVJ9/vnnN27c+Pjjjx89enTjxo3r168TBHH06NH3338fT5mCxgmCuHPnztWrV7/88ktwaV3Mpqens7OzCwoK1Gr1nTt3CgoKDhw4gOtSiV+NgUWq6vDw8N75YDabsaoqFIqMjAyEUGRk5MDAAEKopaVFIpGA2zg0NIQQio6OPn78OA7JBQYGtrW1wWu1QCBoampCC2BeVYXQLcRVEUJsNlvohN1u37Vrl1AoDA8Ph/awt4ibd48AwBt6fn7++Ph4Xl5eQUHBxMQEOKMmk6mgoCA1NRVXFwqFKpUqZC7UajVZVf38/HgkQN2qqqrBwUHyUDWDwbh06RIehQNBpNPpbW1tZ8+eJVvi3rGvSi6BWDCPxyPvJcdVyaqan59/5MiRPXv2gFpBO01NTTweb82aNdgJxQmlUgmqihDi8/kz8V8Oh9Pb2/tLdEpWVb1er9VqDQaDi6omJiYqlUo8s6qnpwdOvK2tzWw2u8SjXViC7PKoKuEEnpfqknBXVblc/uTJk9HRUZjer1Kp5h2tioiIEIlELqrK5/Nv3br19OlTiURSWloqFotdzKanp2tqaswk9PX1wRFS21+TgUWq6k9GADgcjtVqlcvlzc3NQ0NDJpNp9+7dJpMJFDM0NBSPs8OIEH7HrKqqghvm56kqQgirKpqF+yTZRaqqSCTaN4v9+/dPTEzM5l7+JU9EFQqFY2Njl+bCYrGQVRUOJzAwUCwWl5WVyWSymcGD8fHxK1euMBgMHo+Xk5NDp9Pr6upOnDgxe+yvpkz5+PjodLrz58/P+zKLvVFckZzAe0FVN27cGB4erlar4+PjwUylUkkkkj179rS1teFz7O3t5fF4gYGB8FCEKcN0J8iqCi24z81ark7JqioSiZhMZnp6uouqrl69msVigar6+/tbrVYPDw86nV5bWzs5Ofn7VdXo6OjNmzcTs1CpVP/85z9n3nH+9Kc/ffnll0YnsrOzYT9W1V27dvX19X3zzTfXr1+/d+9eeXn59evX8fR+bDY9PZ2WlgaeBd6Su5vtlvr7yzKwSFWdGZ6eKyD/ydntdvBV165dW1hYKJVKw8PDaTRaeHi4RqPJzc319PRksVgpKSl49o+Lqq5du9bf3x8htHPnznfffRctgHl9VRh3UqlUO3bsYDAY2HGcmJgIDw+HLIxZL1JV169fHzELHo9ntVpncy//QmiCTqeHhISkp6fP66smJyeHhISsWrXKy8urra3NZDKNjIzU19enpaVlZGSYzWapVHrq1CkQjoKCAiaTWVlZOTNwB+eCELJarTjW4efn19nZCTNMXYjBEuZSDlm8F1Q1JiamtbW1vr4eYrK+vr52u53FYnE4nLmR4bzAwMCYmJj29nZox2w2W5yYnJzEvirEJXJycsgPA3cH+Wd3uvg5AKCqMpmsrq4uMDCwsbFRpVLt3LlzbGyM/GIxL0XL46viV37CCZxdaAYrmOGtSqW6evWqfC5gcJ/80VRBQcHVq1fz8vIIgti7d+/09PSDBw9mHtHQDlbVjz/++DM3kL+Oxf1SiV+UgUWqan9/P9YscmJ4eBhHABAJUqm0vr6eTqcHBQUNDg6aTCb8huuiqggh+JzGZrMVFxeT2niZjIyMNBgMvb29RqMRT0XCNps2bTIajXa7nc1mzxzGjBa4A75oXKSqZmVlNS2MoqIieOGd9wFDLoQPWOPj4wMDA+FoV69e3d/fn5CQgBDy8PBoaWmZmJiAATcwEIlEJpNJq9UajUassBCSxudLTmDdJBfiNIvFgkbIEQC8VyAQzBt5lMlk3d3dIyMj+Oup6upqqLV161Y83aq7u9tkMlmtVpfPw5arU6yqWW5wmVkFqiqXy2Eu7dGjR+Fj39jYWI1GQ/5oAp87TiyDqhI/BfcIgEuNuLi4//I11I4dO2JiYlyqEAQRExPD5/Nx+UJm2IBK/MoMLEZVGQzGvOPRME3VXeyQEwsFBEEpyIP1CCFPT0/3iUTQjqenZ1BQEJ4mCYV46+PjM+8LMjbACbKEIYRWrVo177AYtl/2BJkQGo2GRQp3NDNQFhQUhCdv4fJ5EwEBAWTxndcGngEg8S4G8/Lp4eERFBT0k3zS6fTAwEDsULu0vPROfXx88LQ5l8bXrFlD7tfX1xdPYXaZXvaT5CxVVV8sDgSFN4+Bxaiqy382laUY+B9gYEmqSlCgGFiYAUpVEYU3koFXqkqtBbCwPlB7XpuBAGotgDdSUKiTnvP7qtS6Va+tHFSFBRig1q2ixOVNZuCVr4oQotZYXUFhORig1lh9kzWFOvc5qkrRQTFAMUAxQDGwRAYoVV0igVR1igGKAYqBOQxQqjqHDipDMUAxQDGwRAYoVV0igVR1igGKAYqBOQxQqjqHDipDMUAxQDGwRAYoVV0igVR1igGKAYqBOQxQqjqHDipDMUAxQDGwRAYoVV0igVR1igGKAYqBOQxQqjqHDipDMUAxQDGwRAYoVV0igVR1igGKAYqBOQxQqjqHDipDMUAxQDGwRAYoVV0igVT1ZWAgKSnJ09MTL/WME+6/FhwdHe2+fNNCR1BQULDQDwzPrFkPv+QPdZOSkoKCghZqByGEf8AYbIKCglx+GxvKd+7cOe+aJf+lZYTQpk2byOtWYePg4OCfXMwDjPfs2eP+S9WwKzo6OjIyErfJ4XBcfmYf78KJpfPGYrFwL3K5HNZN4fP5i/zZbHwkkHC5WPDb5Gw2WyqV/rwGXdpf9iylqstOKdXg6zGwceNGo9Ho4eHhcDjIS4nYbDa8wsqOHTsaGxtnzLq6uvbv33/o0KHLJBQWFkKX6enpB0lwOBz5+fm4AK/tgRCC9TOgFovFmpiYyM3N3eUEQRBQzmazs7KyKioqurq6BgYG4uPja2pqzp8/bzAY+vv7oVMajRY0CzabPTY2FhcXN1vwn790Op3BYAy74e2334YTFIlESqUSIUSn0/eQkJOTY7fb09PTSWV74Enj7+9/kIT+/v6GhgZSwUH8QKqtrU1KSsKXpKmpiczDL8EbrF5jNBph0Zfh4WEmk5mcnDw4OIjXAoCVb2DdKovFYrPZ7HY7zkICVpYmX6yIiIiampqurq6xsbG+vr7KykryAwOf42+eoFT1N78Eb/oByOXyI0eOuK/+pNVqsaoWFRXJ5XImkwl3kYeHx/bt21tbW5lMZl5e3rFjx4DElJSUHBIcDkdubi4uSElJQQgxGAw2m11RUVFcXLxp0yaE0MmTJ9vb20ucMBgMubm50FpOTk5ra6tAIIAVong8XkdHR1BQEHheYMNgMDSzsFgsBoNhNvfqL/i5TCbTx8dnRlqDgoKYTrBYrNHRUVhcC1R19erVU1NTBQtjamoKVk/icrmDg4OwgqlCocBLmeI0qKparbbZbAMDA1qtNjw8fOPGjVNTU9nZ2VIndu/e/Uvwtn79ejabnZKSIhaL2Wy2yWTavHlzTk6OQCBgs9nzrj1TUlKSlZUFB0PeulwsiUTS2toaHBxMXlGGbP87Sc9RVeqXAJfjZ/CoNlYs/pcAfX19x8bGBAIBqCrIDWx1Oh1ZVTMzM728vAwGA9yWRUVFR44cQQgVFhbKZDK4ncLCwsiK5HA4CgsLcUlYWBhCyN/fv7Ozc2RkZHBwsL29XSKRGI3Gzs5OWPAZHCtoLScnp7y83N8JFovF4/GampoWum8jIiJMJhMs6bqQTVxcXFdXF5ydh4fH2rVrXVR1ZjFXk8kE1SsqKrZv344Q2r59e0VFBRSaTCYQFC6Xe/HiRR6PFxcXB4taxzphs9liY2O3bt2K7dc70dzcDKvatbS0lDox4+jZ7XYwW17ejhw50uKEWq12OBxTU1Pnzp2DkpaWljNnzkCnAoEAX5qRkZGKigqcLSgogFNwv1i4OjTy+9y+UlXqV6sJCsvEwOJ/tbqystLhcICqwjv9yMjI6OgopPFKlkVFRQ0NDWq1emRk5OTJkxEREaOjowRBsNnszs7OnTt3wt21adOmLBIcDkd2djYuAM8ULNvb28vLy2eWROZwOBs2bDh8+LBKpTIYDDNLK4MBQignJ8dsNl++fLm/v390dJTH4w0MDBSTgEOrTCazv79/YGDgjBvIgT+FQmE2m4eHh8fGxoqLi91VFboeHBwcHh622WxgbDabbTYbxA/wez2oaklJSUVFxcTERPks7HZ7eXm5XC6HprBGK5XKsrIynU6Hl+rz9fW12Wxgtry8QZt8Pn9gYCAtLW14eDg4OLi6utplzUS83KlGozlx4kRWVtaMYra3t2dlZbksd4ovllQqHR8fJ8V+Lu/duxe6+11tX6kqtcIKQWH5GFjMCis8Hk+v16vVavLS05mZmaWlpS43SVJS0tmzZ3fs2MFkMqVSaWFhoUQiYTAY3d3dCoUC3LcNGzbkzYXD4ZDJZOQyGJLy9vaGQF58fDwsdp2fnz8xMWEymfbu3YvfLg8cOADBU5A/Ho/X3d0tkUiKi4tVKpVEIgHRZzKZnZ2dU1NTx44dE86FxWJZu3YtnAuHwxkZGYFVPEtKSiQSyUKqCvZKpVIkEpHjA2ROQFUhFDs+Ph41C6vVSjYjq+rMU4HFYoWFhcG4lp+fn8ViQQgtO28zh93e3t7b2xsVFYUQGh4e9vHxycjIMJvNx48fx+N+paWlmZmZCCGlUpmens7hcGQyGVz6oqKivLw8OBHyxdq3b19dXd3o6CiLxWIymU1NTWKxmHy+v5P0K1VdsWIFQYFiYPkY+MnVAENCQuC1ekZV29vbO50ATw3SnZ2dcBNGREScWhjgBJHVYeZFW6PRVFVVaTQaUFWZTFZYWAiqmpycbLPZKisr9Xo93O0KhSIgIGDmrbO9vd1sNsP4tUwmk8vl/v7+bDZ7dHQ0Nja2oaEBISQQCCorK5ETXl5eXV1dZ86cqa6urqmpyZkLm80Gqkqj0To6OkZGRmAoTKPRhISELKSqIpHIaDRaLBbsq1osFqPRCCIL/UZHR6vVahgNdyEGDGBrNptNTkxMTIDGlZWVnTp1CiIhoLnLztu+fft2794NbrW3t3dWVhasQM5isWpqavAYFFlVtVptZ2dnf3+/u6qSL9ahQ4fkcnlDQ0NCQgKNRjOZTHj4i3zWv3l6Sar6ggSCIEg51yRB4c1j4CdVFf77m5qaBAIBjJdLJBKHE2+//TaUwM0pEokuXLgAY/QpKSkOhyMxMRGyPT09+EZFCHl4eMjlcq1W6+vr6+HhceXKFV9f35l3//b2dojD0mi0np6e6urqrKwsHo/n7+9fWFhIHj3fu3cvqMDhw4eNRqPWCbVaLRaLQY/IqooQEgqFNBpNoVD84Q9/yJwLrKo+Pj5nz56VSCQmkwkeIQihhVRVIpFA9JDNZmNf7MyZMxKJBBgDZW9paeFyueQjx2m8rr3JZFrtRENDA6iqr6+vxWIJCAgICgrS6/W4wWXkDbcJjnZNTQ25BKfJqgpXUCqVuqiqy8U6ffp0RkZGfHx8Z2fnrl27VCoVbu13lViqqhJOvHjxAlQVsi5b2OtSuPjswYMH9+/fj+1PnDiRmJiIs6+bcGmNIIiwsLCUlJSqqqqoqKjXbY2y/y8MvJaqIoQgOtnY2NjS0qLT6TZu3IhmIRKJdDodhDRLS0sdDodcLofs4OAg3JOenp5paWlXrlwxGAw4hpCbmzswMDA4OJiWlgZzVxMTE5VKJXlm1fDwcGpqqsSJmpoa/O5ZWVmJR8kRQvn5+dnZ2S6+6uwBIoVCcfLkyT1zYbVacQQALDkcTltbG0w5+klVzc7Oxk6xi6pmZmaePHkyJCSkrq5ucHBQKpXC8Xd1dfX29uJZCuQIAKgqQojP53t6enI4nN7eXoTQ8vK2YcMGGwnwjLTb7aQym5+fH0KIrKp6vV6r1eILhyMALherp6eHx+MhhNra2sxmc1xcHOb/d5X4zVT15s2bz549ezofvvvuu9u3bxOzuHjxYnNzM+QEAsHz589VKhVE51NTUwmCOHbsGLmZZ8+e/fDDD+SSp0+fFhQUQAu4tYyMDLvd/o9//OObb765d++e0WjMyMiY7ZP6uwwMvJaqrlu3rrOzs7CwEOKq27dv1+v1eKK+SCTq6upyTgeSpqenOxyOlJQUyGo0GlBVNpt97ty52NjYgwcPYlWl0WhNTU01NTV41Gj16tUsFstFVbFzB+EC5ERbWxv5i4OLFy9CZMDFVwVjhULR2NhYNBfYVwUbhFBJSUl1dSS+ud8AAAg0SURBVDVk6XR6RESEe+RULBZXVlauWrXq0qVLEomku7ubwWBUVlaKxWIc81UqlW+//TZMFGtubm5qauJyubW1tZcuXQoICMDdmUwmuhNKpRKrKuyNjY09d+4cQmjZecO9v/POO0NDQ/v27dNoNHhkD+8lq6pIJGIymenp6S6+Kvli+fv7W61WDw8POp1eW1s7OTmJVZXNZqvV6kuXLkVHR+P2f8PEUlUVv+q/rq968+ZNrHTl5eUREREEQURERJSXl2dnZ4OqRkZGpqSkDA0N9fb2JicnEwQxMjLy4Ycf6px48OCBSqUi3KDT6bAKk3e6tFZZWXnz5k2JRBIZGUk2o9LLxcDiVRWucklJCY1Gw6NVcXFxRqMRFFMkEvX19cHMmyNHjpCnTA0MDIANmsXBgwcVCkViYuKZM2cSEhJAkvR6fWpqKnbiXFQ1Ly8vy4l3330XfFUPDw+LxYLDdpGRkTqdDnpYSFWlUunsIbz8S6PRLBYLHpxZu3ZtVVWVWq3GxwDxCoRQYmJifX09rrtq1aro6OjGxsbOzs5Vq1aNjo7CHFWEXnrE8fHxPj4+VqsVZpgxmcydO3eazWaHw2E2m4VCIdk7NpvNMKN+cnISqyocQE5OzokTJ3CnCKFl4Q1OCgasBgcHORwOPDaMRmNNTU1CQgImZPFzAOBiyWSyurq6wMDAxsZGlUq1c+fOsbEx+Pbs1KlTXC6XxWL9TmICS1JVYi4WetOft/zmzZtyufz06dNRUVHPnz8vKChIS0tLTk7+/PPPsaoKhcLbt28/evToiy+++OCDDyorKx89enT79m0ul5uXl/fw4UMejweHcPjw4YuzePTokcFgmM29/Jubm0sQhHtrNptt7hlQueVkYPGqKhAI8JQmrKoIoYCAAJCAGV9Go9FkzQedTueiqqmpqSaTqa6uTiqVYic0Li6uo6MDW/6kqoaGhr777rtoFjBzHnI/qaoCgQCGibRaLf5kFgK72NmEpvbt2zc8PDw6Onr48GGE0Lp163p7e61Wq0ajyc3NhXPv6+trbW0FX1iv1/v6+sbFxalUKi6X29/fPzw8XFdXl5SUFBwcnJ+ff+HCBZvNZrFYQEOxX7x161b8SWt3d7fJZLJarfijUjiYZeEtPDx8YmKip6cnKysLz+KC8E52dnZPT4/dboevKrCqZrnBZWYVXCy5XA5Tbo8ePQqPmdjYWI1Gw2Kx9u/ff+zYsby8PPyOAmf0W22XpKrYUf0ZcdWbN28WFhbevHlzdHT0008/LS8vv3v3rkKhuHbtGlZVwokPP/xwaGiIIIi0tDSxWNzT03Pr1q0HDx7IZDIwIAhiYGDgvffea25uvnv37vDwcHNzs81m++CDD5qbm2/dunX+/HlsiVurqqp6+vTpZyTU1NRgMyqxdAYWqaqBgYH49Ry+uMceIpqFt7c3+cV2tvjl3/Xr15Orwy6sZWRLctrX1xc7TcHBwdje1wmwhDErXAvbeHl54Ym0eG9QUBCWLRqN5uPjMzODHU8vRQhhfxNXgQSTydywYQNuPCQkxOV0PDw8goODQ0ND169fjxsEdQZ5cmmQRqP5+vpiS5e9MBkrMDAQP2/IBvgwyIXk9GJ4W7NmDbmKSxr36+Pj4+3t7bIXsmvWrMFmCCFypy7nBQdMo9FEIpFUKnW5ZPM2/isULlVVCSd+nqoWFBQkJCQ8fvwYZpxcvXr1yZMnjY2NZFXdunUrxEmLi4sJgoAJJTO+7fT0dHV1NZfLhQMYGBg4e/YsQRBXr16tq6tLS0trb28fGBggCKK7uxurKrm1+vr6qampJ0+egKN048aNsrIyaI3aLgsDi1RVRIFi4H+LgWVWVbL3Sk4TbsBx1Zs3b167do0gCLFY/OLFi5ycHLKqnj59+tmzZ0aj8auvvlIqlY8fPx4fH09ISMjNzf3www8fP36cmZkJvipW1U8//fT27dv37993V1VyaxcuXNBqtX/84x9LSkrCwsK+/vprgUDgdphUwc9ngFJVROGNZGA5VfW17j9Q1ZnvZL7++uvPPvts//79arX66dOnFosFq2pYWNjdu3cnJiaam5sPHDggFAovXbrUSUJ1dTUMc5F9VRgEq6qqclFVl9bGxsYaGhqKi4tv375dXl5+69at1zp+yvgnGaBUFVF4IxlYTlV1cU5dsi43IcRV//znP8M0qfPnzz958iQjI+PRo0e1tbUwB6CiouK9997Dc6EIgnj48GF1dXWlE3a7Hb/ak1X1yy+/vHfv3oMHD1xU1aW1u3fv5uXlEQTxt7/97fHjx4cOHXI5Qiq7RAYoVUUU3kgGlllV4T50CbMuNAfAaDR+8sknXC6Xw+Hcu3dPoVAQBFFdXX369GlQVS6XGx8f76KqMTEx0Mt5JyBNVtVjx47FxMTU1dW5qCq5NaFQ+N13323ZsiUsLGxycvLHH3+kVBWYXMYtpaqIwhvJwG+pqkePHhUKhXAbi8ViSBAEIZPJPvroI5x1UdXz5883O/H++++TfdVFzgGA1jo6OhwOh0gkun79+l//+tfS0tJvv/32zJkzuFMqsXQGKFVFFN5IBn5LVcVfAeAbODIy8sGDB0+fPu3p6cGFr6WqILjkrcvMKmhNq9XO/IzurVu3dDodTCSQyWT/+te/4uPjcb9UYokMUKqKKLyRDCxVVXHw1OXXVdyzLrfozp075/3uPioqis/nk435fP62bdugRCKRhIWFQZrvBKThl3rJtXA6JiYGfyxAEAS5tfDwcGxGEASHwyFnqfQSGaBUFVF4IxlYkqou8a6jqv9vM0Cp6hspKdRJo/8PGd542nMuFX8AAAAASUVORK5CYII=;" vertex="1" parent="1">
          <mxGeometry x="2.5" y="350" width="455" height="57" as="geometry" />
        </mxCell>
        <mxCell id="jE23oCoDrlCcbpvQbo-8-17" value="" style="shape=image;verticalLabelPosition=bottom;labelBackgroundColor=default;verticalAlign=top;aspect=fixed;imageAspect=0;image=data:image/png,iVBORw0KGgoAAAANSUhEUgAAAREAAAB/CAIAAABHf2FHAAAgAElEQVR4Ae1961dTx/4+tVrb2p6eek6P50xCSGIEwi1EIhcRBU1CSEWpCEEUETEiogiIKFehFAlJqUeKwEEQCTFgCAhJIIQEyI8/oGv5pi/6qm/1rNXVtfpefsinzNnmLiQB/O5ZLvzs2bM/M/vZ82Que88zASwykAiQCLwLAgGIDCQCJALvggDJmXdBi0xLIoAQyRmyFpAIvBsC78yZ/fv3X7hwoaam5sKFC/v373+33MjUJAJbH4F34IxIJPrll1/++9//WiyWoaEhi8Xy3//+95dffhGJRFsfB/IOSAQ8RcBTzigUilevXkmlUnDMZrPBkEqlr169UigUnmb4djo2m221Wnk83tvRyGAwpKen20SShyQCmwEBjzhz9erVn3/+OSoqCiHE4XCGh4eXlpbUajWHw4GYn3/++erVqy7uh0qllpaWjo+PWywWlUqVk5MDiZ1xxoUrZ6fS09NPnjzp7CwZTyLgLQTcc4bD4bx69YrP59Pp9JaWlj/++GNpNfzxxx8tLS10Ol0gELx69Qoo5LBkdXV1KpXq4MGDdDpdLBbrdLr8/HyEkBc509jY2NLS4jB3MpJEwIsIBBQ4CqdPn8Z5yOXyR48eIYTi4+NNJtMqX/7832QyxcfHI4QePXokl8vxVUSDzWYvLCwcOXIER+bm5hoMBiqVCpypqKjQarUTExNXrlyBNJOTk5mZmdCI/fjjj0ajUalUHjt2DM7GxMR0dXUZjUaVSiUUChFCCoViOYuFhYXp6WmcC2mQCPgCAcecSU1NxZmZTKYLFy4ghH766SehUJiXl/frr78uLS39+uuveXl5QqHwp59+QghdvHjRaDTiq4iGQCCYn5+nUqk4MiYmxmq1RkZGAmcaGhrodPrRo0dNJhPMKABnAgMDnz59euvWLTqdfu7cOb1ez2QyaTSaRqOpqKhgMBhZWVlGo3Hv3r0IIbKdwfCShk8RcMCZEydOUCgUnOvLly+jo6MRQktLS69fvx4cHORwOJcvX+ZwOIODg69fv15aWkIIRUdHv3z5El9FNNLS0sxmMzEmIiLCarVyuVybvllLS0tTUxNCCDjD5/MXFhaSk5MTEhIOHjw4NzeXnJwsEAjMZnNQUBA4lEqlMCFBcoaIMGn7DoGAzMxMYu8sMzMzMDCQmB+RM9Ah++233xBCv/32G+6nueaM23YGz5uVlpZ2dnZizkgkEovF0kEIR44ckUgk4+PjxBKCTXLGHhMyxhcIBNDpdIlEArSRSCR0Ot0mG4vFkpeXB+0MkSTYhnYmLy/PYrHYXAuHYWFhy0MNF+MZzJm6ujqZTIY5IxAILBYLjUYjuoV2Bkfy+Xyyb0bEh7R9jcCbeTMWi5W7Elgsln1+33//fW9vL0Lo999/xzwhUuj333+HOQAXb2kaGhqGhoYSEhLwvFlBQQGeN2tqaqLT6YmJiQaDITs7G3MGhi43b95kMBjh4eGFhYUUCoVGo42OjpaWltLp9BMnTszMzAQHByOEqqqqenp6wLa/CzKGRMBbCPw51xy0Ehw6xXPNbDZ7aGgIaIM5MzQ0xGaz+Xy+67lmKpVaVlb2/Pnzubm5p0+f5ubmQl5sNttoNEokEp1Op9frKyoqYCiF5814PF5nZ6fRaDQYDNXV1dC88Hi87u7umZkZpVLJ5/PBVXx8vFar1Wg0Du+CjCQR8BYC7t/PIITgnWZkZCRCSCQSvXjxAiH04sULmOOKjIx0+07zXYur0+lOnTr1rleR6UkE/ICAR5yBFyDEb2dwydb57Qz2gw0ajXbgwIH5+fmkpCQcSRokApsHAU85Ay3ML7/88urVK59+o5mVlWUymWpqajYPRmRJSASICLwDZ+Ayci0AET7S/j+IwDtz5v8gRuQtkwgQESA5Q0SDtEkE3CNAcsY9RmQKEgEiAiRniGiQNomAewRIzrjHiExBIkBEwMucIWfViOCS9nuJgNc4QypsbGz9YLPZsEIpKSkpLi4OFyY4OBivJMeRCKEDBw4cPXoUYkJDQyMIAX//ymKxeKsBvgLhcDirETyHXycSs7C3g4OD8eVEw5OvBDkczrlz52x8JiQk1NXV2UTiw+TkZGx70fAOZ3yksIHvc3BwsLCwECFkNpsFAgGO97qB/c/Pz8MKUByz5rzYvtcJiY6OHh4eDg8PRwh1dnbiJa4JCQnJycmzs7MpKSkJKwHfRWVlJVZEGRgY6Orqur8SJicn09LSIFlOTs74+Hh3d/fjx49hjYZare7r6+vu7tbpdJiKtbW1A85DbW0tzlQqler1+sG3g06nw+tzY2NjJ1fD2NgYcR3X8oeF8K0w9hYaGjoyMmIwGHDmXV1d+Oyy0dvbe/nyZWKMV2wvcGb9ChsGg2FhYWF+NbS3t9vcG+YMjn8nxQwWi2W1WhMSEvDl2dnZeBGOQ1eYM/gSh8nwWYTQRumEUKnUx48fw+d5y+2AwWBgsVgCgUAulw8MDBAWH3XMzc0hhNLT08fHx81ms8FgGB8fF4vFAwMDeDlGe3s7kTO3bt1CCMXFxWHOgOpDS0sL5kxkZCRuNJKSkkwmEz7k8XjQQAFQUqm0vr4+5O1QW1uLORMYGAgN3pEjR7RaLRFeG84kJiZqNJqSkhL2SuBwOAMDA+Xl5eAb1oBFREQYjcbExESin/Xb6+UM/up5PQobBoMhIyPDxc3Yc8bzFWYUCsU1Zxy6sueMw2TEMm+UTkhGRsbAwACUpLW19cJK+OGHH+Ry+fHjx4klhNWyNBpNKBSq1WqoXjQaTS6XK5VK+PVXqVQpKSlwlUQiMRqNk5OTer2+o6NjedmISqXS6XSTk5Mmk0kikRCdg81isUwmk308xEil0omJib63A1EHIjAwsKamhkajJSUl9fX1ZWVlaVfD5OSk2WzWarUCgSA4OHhkZGRhYQF7MplM0Ab29fUZjUZM+8rKSii5syKtId4pZ06fPl3gJHhXYQOhN2pm9pxJTEx88uTJ9PR0S0vLyMgI9M2gKtsoZkRHR3d0dBiNRrVanZWVhZflXLt2bWJiIjk52QVnbFxhqtgYxGT37t3Dj+HQoUNWq/XAgQMbqBPy4MGD4uJiWAcF1WhmZiYxMVEul09NTa32dN78jwVG6uvri4uLy8vLg4OD8/LyrtsFJpNpU5mOHTvW3NyMEIqIiGhoaLBZzIsTu+VMU1MT9+3Q2NiI2xmEUGtr682bN0+dOgWSRuzVcPLkyf7+fjabDcMtyAg8iUQiuGU47O3txZxJTExcWFiA1e+4kOs0nHImNTXVCWUKvKuwAZw5f/48ZzVQV8LY2NitW7eYTObx48dnZ2eJnCEqZlCpVLVaXVVVxWQyhUIh9N1hCFFeXg6yAS44Q3SFELKhCjEGtzNpaWnLq4D27du3vA6vrKxscHAQIeR2/bbvdEJmZ2fxaB7GxI2NjQghuVyenp4OK6PwXwqFEhUVZTAYwsLCBgYGuFzu8ePHJycnCwoKsleCSqW6cuUK4Hbnzh2gnE6nm52dNZlM09PTOp3ObDbr9frh4WH7yueWM1qtlthd7OjoGB0dJXImNDRUr9c/fPgQViXevXsXfgdt+mYMBgP8TE9PW61WjUZDdIv7YxQKZWZmxqa9tS/2O8U45QyFQjlx4oQ9bbyusAGcGRsbU62G8PDwlJSUubk5/GuH+2a4TuMafOzYMbPZjJdkNzc3NzU12Qy7vcsZKpU6MTEBPROVSlVUVIQQ2iidkODgYKIQaXJy8sjISEhIyL59++Ry+ffff280Gufm5gwGg9FotFgsXC43MTERkDabzWq1+uTJk8+ePWtra/t2JUxMTBCn3cLDw3Nzc1UqVUtLC41Gu3nzZk9Pz9dff401TGxqm1vOfPfdd3Fvh6amJiJnEEJnzpyxWq2wGCQ1NXV0dJRKpRI5Q6FQjh49euXKlaGhoY6OjitXruh0OmhMEhISGhsbcX1ACGk0mvPnz9uUcz2HTjmDEAoMDPSDwobDvtnp06efP3+Ob8wFZ7Kzs4mDRVDh8ClnYB11e3s7l8tdWFiAMa7bdgYPsr2rE8LhcKxWa0REBEIoJCRkcnJSqVSOjIxkZ2d3dXW1tLSUlZWpVKrMzMyysrK+vj4ul4tRHRgYgAufPXsmEolgYm15PACciYmJef78uU6na2lpwe0YQig5OVkmky3rZimVypiYGOwNDLec0Wg0MEGH/2o0GhvOgJQXnmNQKpUZGRlEziCEGhoaSkpKkpOTL168qFarVSpVc3NzS0vL2NgYtEu4YEql8uLFi/hw/YYrziCE/KCw4ZAzy4/QZDJhSTQXnOHz+UTpJoftDIVCMRqNxAa6pKQEhA7X0DdDCB08eNBsNpeUlPT09MAz2CidEDqdbrVaQZaRRqNJpdLk5GTA7enTp1VVVcPDw0aj8fHjx8PDw8vDGy6XGxgYeODAgZMnT2q12s7OzvT09GcrQb0STCYTbmdiY2O7V8P9+/cRQvfv34eInp4eiURCnAsGHJxxhs1mp6Sk1NTUtLW1pbwdWltb6+rqUlJSQkJCwMmtW7d6enpGR0dh6CKRSGw4Q6FQzp07197ertVqKysrY2Nj5XK5Tqe7cePG48ePbVgxPj6O6Wdzam2HbjjjH4UN+zkAJpNpMBiKi4vpdHp6errZbLYZz2DFjMDAwOHh4crKSgaDwefzTSbTsWPHbNoZhFBdXZ1SqYyLi6PRaKmpqQaDAcR0bMQ3cN/P3sA5AtAqlWp6eho7gV++DdEJ0el08HNAoVAOHDiQl5enUCiuXbs2NTWVn5/f0NAwMjIilUobGhqUSiWXy01JSdFqtffv39fr9adOnQoKCnr27FlUVNTyyHD53WJvb29ubi5+g6nRaOLi4lJSUmD+YHp6OiUlJS4u7uHDh/bTNlBbHM6bicXiztXw6NEjMHt6erq6ulajO5dbEhD90ul0oaGhPT09WDkVIWTTzhQUFAiFwujo6Js3b2q12nv37j158gQh1N3dDVUFHhONRrNYLN5d8+ueMwihoJXgkJR4rnk9Chs272e6u7sBI5VKNTU11dzc3NbWZsMZomIGl8sFnY3h4WGQrbHnTFBQUFlZ2ejoqMlkGhoaItZ1oit7quAYYjKEUFFR0dzcHPEF9kbphDQ0NNy5cwde7ZtMpn//+9+5ubnZ2dnd3d1nz54tKyvr7+/PyMgoKSlx2Ddrb283m80TExPPnz8fGhqampqSyWQw3czhcLRa7aFDh4RCIeaMUCg8dOhQd3c3cIbJZB4iBD6fPzs7S4h4Y+JxaWxsbE1NjV6vh7FHYWGhwWBoa2v75ptv8GzYwMAAjP7xdwZBQUFUKlUoFP7nP/+BSshkMouLix8/fgyvaJhMZlZW1o8//ogQioyMHB0dhd9QWFys0+ns20OHldnDSI8449qX/xU2XJfHP2dLSkqgu7Lm7LylE5KYmLg8jIF6CTUPIVRQUJCfnw+cgRJWVlbqdDpcEZd/CmE8w11RM8Xd4OVfH9w343A4JpOpo6Pj4cOHmDMPHz7s6OjQ6XTAmeXEy6/nXYe4uDgKhTIwMKDT6W7fvg0bTECp2Gx2QUHByMgIvMgODQ29fv26DaQxMTEzK6G+vh5OUSiUoqIimBy7ePHi6OiowWDAr0DCwsKam5vDwsJg5hom4m18rufQC5xBKxLj/lHYWM+teutaKpUaExOj1+vxS4B39ex1nZC6urrbt2/bFINKpcKHZBAfHByMBwwQw+VyMVXwtenp6bjxDAwMhK3sqFTqgQMHoCmDSyIjI0GKEV/o1uBwOM5+7+G9swsPIIfv8HIqlRoVFeXwDYxQKFQqlfh3xIX/dzrlHc74TWHjne7NR4lTU1NnZ2fXo/LhdZ0QGo0mk8mIv98+uvet5VYul/sCE69xBtAk1wJsrVpFlnYNCHiZM2soAXkJicDWQoDkzNZ6XmRpNx4BkjMb/wzIEmwtBEjObK3nRZZ24xEgObPxz4AswdZCwK+c2WyzaopF8fv0b2vVvK1bWj9xZnMqbLxPhFEsiu1rIRbWsD/lrRgKhVJSUgLeuFyukBCIX0NDgqysLNh+CxQL1lMGt3IcPhLQWP6o1x+c8bXCxpqhXw9ntu/YVvTvuPV4cHYt9rxt2weXf4hVLIpxjLNLIN4GB6Kwhs0pLx5SqVT8UWZZWdmTJ08aV0JLS4vBYCBmtH//fp1OR6PRrl279sMPPxBPYduLchw+EtDwB2fgazR4HcvhcIaHh5eWltRqNUgxcDgcD/d7qqmpcbgwEMMNhlulC2J6XAUPfhP0VeAufOjMuNAac/67/c7Ouo7/dloQEBBQ3n8IJztTx/ni7x/DoUPPmDP4EofJ8FnirRGFNSDeFwCGhobm5uaazeacnBwWi1VWVtbV1VWyEioqKmw4U1VVVVlZSaFQNCsBf84MBnzU7EU5Dh8JaPicM/ir5/UobCCEaDSawWCYmppy+1E3Xr9JrEAObQqFArVNNif69C87Pvl8R+l/DuL659CI/TpwvwA5POU20jVnHHq254zDZDhr4m0ShTV8B2B0dHRtbe3c3FxNTU1YWNjBgwdzCIHYAQsNDYUlTJmZmVqtNjMzc2JigriOxuZbOBfLCuA23cpxIIR8IaCxds74U2EDIXTy5MmBgYHKykriV14xMTFdXV1Go1GlUoEWGVHpAlZiuNbWgNp2/rv91JAvjuQwE08F4fpX9fTIXu7fdn66fQ/jM+ggRR7+Z8AHAQEfBHy8a7tiUYwrdPVIcvCBv3+8a/s/aJ+dqY9WLIobJo4FBAScb97/5Z5PPvlsx8Fv3rh1wRlnnnEWYBCTcfkoJPYrKO2N3sSAgIBK5WEiZ7CwBkT6CEBQqIK+WWFh4cjIyNDQECwT0Gg0g4ODuGvQ2NhotVqzsrImJibOnDnD5XKJq2uJJce2s+VrkEAqlbqV4/CFgMbaOZPqR4UNhFB7e7tUKj106JBerwfFE9jSuaKigsFgZGVlGY1Gmx3PPdHWgDoXnrgn/Sr7Rm/iri8+ks2nKRbFsjnRbvRpytm9LbOpZ+qjP961vdkoVCyKiT/zUI/bFtK+ou06LGG0mFIv34/bsXPb1c4E4MxhCePbKUH540M7dm4rlB9wwRmHnom0xOTBBbikOPDh9g++nRIoFsXH8liI9RebOQCisIbvAMSciY+Phy4Zl8tVqVTZ2dn19fVBQUGwgoDP54+Pj/f391+/fr2trQ0hxOVyLRbLwGq4cOECpgo23HLGrRyHLwQ01s4ZfypshIaGWiwWWLmu0WhgTaJAICAuaZZKpfA1OO6beaKtoVgUN+r4H27fVjd2VLEo3o0+LWjlKRbFRf+O275jW6tFBKRKv8q+O3HMYc0u7ojf/tG2e+Y/U8akUnhpVODMraEjcHlg6BfHr4Z6lzNt1rTPd+/MqeEoFsV7GJ99fSWUyBkbYQ3fAYgQSkpKWlhYUKvVRUVF2pXQ2dl58uTJsbExrVarUqmW167zeDw+n9/R0XH8+HH4np/L5Y6Pj68KDXFAxAezBQy3nPFEjsPrAhpr54w/FTYuXrw4MTGxonR3obe3F36oJBIJFsIkYo0544m2hmJRfLI07PPdOzPKwjPKwumRX0al/EuxKM6p4Xzx1Z+jc6j38Bf/zONGIKeW89c9n+A0/HzWvpi/2XCGHvml6FJw87TQwRzAai72nnEWRIOY7HA2I/zQnjvDyQEfBNSOphA5QxTWQAj5DsC0tLTp6enZ2dnlBdJsNpu3EgQCQXNzM9g8Hg8v0gTOwMPySt/MEzkOrwtorIszflPYePLkycOHD79dCa2trWazGbRVzWYzXk7E5/Nt+maeaGsoFsWUfX9h7f8bT0TliajRx/61/aNtzdPCP9uZuT9bjysP4pz1za48iNv+0f9aJIftDHBG8f/EOz/dDu0YcEx0KTgo/K/O2Eikin3fTLEoLus/tP2jbamFwYyo3eAE/3YQhTWWH5PvAKTT6aGhoTCeyc/PB4Uxs9lstVqfPXsGh3hNvw1n5ufnx1cDCLLh8oPhrJ15JzkOrwtorJczflDYiIuLm5ubCw0NxYCq1eqzZ8/SaLTR0dHS0lI6nX7ixImZmRlYXYiVLjzR1qgYSNr24QeNOj5uKP5B++x0VaRsTvTlPz/h57PumUX5LTEfffJhk+HNyOFwNoMRtRtsqMey+bSvAncdyWG2zKZeeRC3Y+eHxR3xDtsZxaI4IYP2r72f33ySJJsTSdtjP/3LjlM3IyBre88OOUNMBr2yj3dtx04wRAghLKzhUwDxeAayZjAYbW1tPT09MAEgEomIRbLhzLKiHWs1MBgMYkqwnXHGczkOXwhoeIEzvlbYuHXrFhZ6BSivX78OCkk8Hq+7u3tmZkapVMLsPkKIqHThVlvjiISBZ5+g7goK9jE5b362bw0dYUbv/uiTD//F/PzKgz/fXVYMJH2555Pd6FNihb6tTt7H+/vOT7d/Fbgrp/bNAMMZZ1otomN5rC//+cmOnR/+k/l5ZuWfhFEsih16xs0LNojJFIticVHoh9s/aNK/4TOxbwYiOCCs4VMAoYs+MzNDoVDy8/PHxsbKy8vj4uL6+voiIiKGhoaWldCwBpoNZ+znzbwrx+EjAQ3vcMb+F4IYA+80QftHJBK9ePECIfTixQv4EYqMjPTwnSbRp7ds3LxsUUN0KZid8A9ceCIsRGENYrx37fDwcLVaPTIyAkI8sPMCcAZeCl27dg3LwLrljHflOHwkoOEPzmxmhQ1c27ac0baQVvX0yK4vPrqkOIALb8MHh8IaNmnWfxgZGWkz60Wj0aKjo+09R0VF4fkAGo2G2x/7lG5jPJHj8JGAhp84s2kVNnBt23KGtD12x85txJewNn0z+Jn/vyys4SMBDf9xBn45NttaALe/Z2QCEgF7BPzxXbN9rmQMicDWRYDkzNZ9dmTJNwYBkjMbgzuZ69ZFgOTM1n12ZMk3BgGSMxuDO5nr1kVgE3GGnFXzVjXaclPnrgvsLVi85WdTcGZzKmx4C2L/+3FdBbfcWf8D6DrHjefMplXYcA0cnDWbzQKBwJOU/kyzHlZ4qNexhiywZ/z5HI5x7c2f0HmS1wZzZv0KG3iPNKPR2NvbixV6cPzc3JxGoykuLna4ewlCKDw8XCaTGVaCQqEAcQ9PsHObxhNBD19IW+Aq+P5pg7jF3A8JNpIzXlHYwHtx0un0GzduTE1NweJnHE+hUJKSknQ6HXE/QCKyPT099+7d27dvH4vFamhoUKvV9jsZEdOD7YyBxJR4ARwxkmiT2iBAb+JaOkx4bBAR2wz2RnJGLpfD5snx8fEmk2np7WAymWA74kePHsnlcmdgYW4ghKKioqxWKzQUxHiEUHV1tUKhcOjEZDKJxX8K6jGZzPb2dlgmba/RAdt0Xrt2bWJiAho02G2TzWbPzMzk5eVptdqJiQnYudtG0MNh1j6StoDa9l5qgziE0c+RG8kZk8kE4gk//fSTUCjMy8v79ddfl5aWfv3117y8PKFQ+NNPP8HS3OV+lzNcDAaDRCJhsVhsNruqqqqtrQ1aABvOtLe3V1dXO3Ry9+5dpVIpFAqJzYtDjQ7gTHl5eVBQELjCnLFarVVVVSwWSyQSmc1mWOngtp0htUFA0we3M261QRw+QT9HbiRnXr58CR+NLy0tvX79enBwkMPhXL58mcPhDA4Ovn79emlpCSSXXr586QwXg8HQ19cnl8sVCoVara6traXT6cu6DQaDoampqbCw8NKlS/fu3RsZGYFNSe39UKnUvLw82CH1zp07sEurQ40O++2giZzh8XjgvLW1tampafkDWNec8Z20xfuqDWL/7DYkZrNwBvplv/32G0Lot99+w900TziDN6qnUqmdnZ1VVVXAmbq6urNnz545c0YoFGLlABcoczgcmUymVCoDAwMdanR4yJnS0tLOzk63nPGdtMX7qg3i4tn589RGcsZiscC4HDMEGhabw7y8PIvF4gwUmz7Y9evXu7u7gTOYS86uRQjFxsbKZDLcK2OxWFarNSEhAdoZzDTQ6PCQM3fv3pXJZG454ztpi/dVG8TFc/TnqY3kzPfff7+8rzxC6Pfff8c8QQhh+/fff0cIPXr0yNnw3YYbXC736dOnlZWVNvEuAGWxWHq9vrq6OiQkhE6nFxUVLQtzslgshxodrjlTUVHBZDKTk5ONRmN2djZCCAt62BfAp9IW77E2iD2S/o/ZSM7guWY2mz00NARUwZwZGhpis9l8Pv/Vq1cu3pkQ38NMTk7W1dXh8Ywn7QxCKCYmpq2tTa/XG43G7u7uI0eOwGOw1+hwzZnbt2+Pj4/rdLqKigqYhyAKetg8Wp9KW7zH2iA2MG7I4UZyBiHkZ4UNk8k0Twj20idrewb2XLLx46N8bXLBh/jNxhY1XGiD4HvcQGODObOZFTY8fypuOeO5K6+k3KJUUSyKPdEG8QpE63Gy8ZzZtAobnsNKcsZbLPVEG8Tz5+KjlJuCM3Bv5FoAHz1j0q13EdhEnPHujZHeSAR8hADJGR8BS7p9bxEgOfPePlryxnyEAMkZHwFLun1vESA5894+WvLGfISAXzmzOWfGvDVPukn8+KiikG4xAn7izGZWydgkdd1bxcCPFhtsNptKpdJoNLy2dN++fd988w1O4MwIDw8/fPit7aBxSgqFUlJSAodcLldICEePHsXJwMjKymIwGOHh4cTdz23SeHgYHByMdx0kGrBjF0IIL2730OEakvmDM5tcJWM9ldVDFYg1ZIE9r1NxIjo6enh4ODw8vKysrL+/HzhQXl6u0+nqCQEv/GYymezVcPr06fHx8bCwsNUINt5wjkqlwpaAy5/YlpWVPXnypHEltLS0GAwGYkXcv3+/Tqej0WjXrl374YcfiKewXVtbu7qFs4P/a2trcUqpVKrX6wffDjqdDtbGLifr7e29fPkyTu8Lw+ecWb9KBty2h1oTnmOEBS5whX7/FCeWm5fHjx+fOnUKYMnNzS0uLhYKhcCz1BcAAA3ISURBVEaj8fTp099+++2DBw9OnDjx+PHj8vJySFNaWqp1Hvr6+hBCoaGhubm5ZrM5JyeHxWKVlZV1dXXBXucVFRU2nKmqqqqsrKRQKJqV0Pl2gA3qIiMjcaORlJRkMpnwIY/Hgw2/oHhSqbS+vj7k7VBbW4s5ExERYTQa8UZRntcHz1P6ljP4y2U6nd7S0vLHH3/g7/z/+OOPlpYWOp0uEAhcf7kMW6kYDIapqamkpCTP7811SryIEjgjmxN9+pcdn3y+o/Q/BzGLHBp4Ia7Ds64jPd/xHPvB7QyOcV0A4l1nZGQMDAwQYxBC586dy8rKQgh1dXUNDw/zeLzW1la8mxIk5nA4crkcLx8qXAnYT3R0dG1t7dzcXE1NTVhY2MGDB3MIgdgBCw0NNRqNx48fz8zM1Gq1mZmZExMTKYQQEhKC3YLhbBtNOCuVSicmJvreDliDAdJUVlba7Cdpk8U6D9fImdOnTxc4CadPn8Zl8opKBkLIodaESCQaGhoymUz9/f34d8VhJIfD+fHHH41Go1KphG2EiQIXUBffS8WJBw8eFBcXw+OgUCgCgaC9vT08PDwkJKS+vr6/vz8zM1Oj0eTm5mJ64MRqtTo9PR12537+/LnNhrK4b1ZYWDgyMjI0NNTd3Z2RkQG7zw4PD4OfxsZGq9WalZU1MTFx5swZr2xx3tTUxH07NDY24nYGIZSYmLiwsABCKLgqetFYI2dSU1OdUKYgNTUVl88rKhkIIXutiaCgIJPJdObMGRqNBt0J2A3XPjIwMPDp06e3bt2i0+nnzp3T6/Xwm2rTzoQn7km/yr7Rm7jri49k82mKRbFsTrQbfZpydm/LbOqZ+uiPd213tuN520LaV7RdhyWMFlPq5ftxO3Zuu9qZADvRHpYwvp0SlD8+tGPntkL5Ac/bGdy82Bu4nXGrODE7Owsj8oSEhOWRiUajOXfu3MWLF2GRDyw0gnZGp9PBWIVCobSvhB9//BGMvr6+2dlZsPHiP+BMfHw8dMm4XK5KpcrOzq6vrw8KCpqenkYI8fn88fHx/v7+69evt7W1IYS4XK7FYhlYDaCggmsLGG7bGa1WC7uo47+jo6NEzlAolJmZmePHj9t49tbhGjlDoVBOnDhhT5sTJ07gyRmEkFdUMhxqTQQFBU1NTV25coXJZNJoNC6XC5yxj+Tz+QsLC8nJyQkJCQcPHpybm4OpFSJnGnX8D7dvqxs7qlgU70afFrTyFIvion/Hbd+xrdUigoYo/Sr77sQxxaIYV1m8e3NxR/z2j7bdM/+ZMiaVwkuj2uzeHBj6xfGrod7lTJs17fPdO3Nq3mwWvYfx2ddXQok7BAYHB1utVlD2oNFoX3/9tVQqlcvlHR0d9+/flxNCXl4e3hOTSqVardY0JwG3NklJSQsLC2q1uqioSLsSOjs7T548OTY2ptVqVSrV8lJZHo/H5/Nh61moFVwud3x8nLMacKbE2uyWM999913c26GpqYnIGYSQRqM5f/480a0X7TVyBja5zszMJNImMzMT9Phw+YicgZHMGlQyHGpNwLbmra2tOp2us7MTzzDGx8fbREokEovFgn+TOjo6YCUmkTMnS8M+370zoyw8oyycHvllVMq/FIvinBrOF199jEcR2LDnTE4t5697PsEJ+PmsfTF/s+EMPfJL0aXg5mlhQEBAef8hnPhM3f9ysfeMaUk0iMkOZzPCD+25M5wc8EFA7WgKkTMcDsdqtUZERODH0draWlxcnLASCgsLl0fbCQkJZWVljY2NOA1wBh86NNLS0qanp2dnZ4OCgthsNm8lCASC5uZmsHk8Hh4gud2u2SYLt5zRaDT33w4ajcaGM0ql8uLFizaevXW4ds5AT1cikQBtJBIJtPXEknlFJcOh1gSLxYIxDJVKvXDhwuzs7N69ex1GCgQCi8Vi018nCly8r4oTdDrdarWCriI8lNbWVhAqgPlfUA7Jy8sjcobJZC4sLBAfor1Np9NDQ0Nhrjk/Px9+j8xms9VqffbsGRzCuBEhZMOZ+fn58dVAzBfn4owzbDY7JSWlpqamra2NMInwxmxtba2rq0tJScEzCuPj4zk5Odind411cQYhxGKxclcCyILZFG79KhnOtCZiYmLm5+fFYjGVSs3KyjKbzUwm02EkqPvdvHkTXqsVFhZCPwELXLzHihM6nY7YrQfOUKnU+/fvY9ECG84cOXJEp9PZPEf7QzwHgBBiMBhtbW09PT0wAYD7b3CVDWfGxsZYq4HBYNh7dsYZsVjcuRoePXoEZk9PT1dX12p0J8xc02g0i8XixSlWm0KulzMwisC6kjbe8VzzmlUyXGhNZGVlDQ8Pm81mlUqFa4bDSB6P19nZaTQaDQZDdXU1tDlY4OI9VpxoaGi4c+cOfig8Hi89Pb2jo+Phw4eBgYGdnZ2PHj2qrq4m1vKmpqbvvvsOX+LMCAwMnJmZoVAo+fn5Y2Nj5eXlcXFxfX19ERERQ0NDMpksJiYGrrXhjL0GA5PJPEQIfD5/dnaWEPHGxD292NjYmpoavV4P02KFhYUGg6Gtre2bb77BXQmRSKTT6Yjjamd3sbZ4L3DGdcZ+VslwXRiHZ/HQYosaLhQnEhMTJycnocLduXNHp9Op1eqLFy9Cr4xKpfL5/Lq6OqPRCO/a4+PjZ2ZmcHV3CBfspKBWq0dGRhBCRUVFCQkJCCHgDLxMu3btGp79d8uZuLi4Zcku1yEuLo5CoYDW6bK+T1RUFC4bm80uKCgYGRlpb2+HSBi24QReN3zOmc2vkrFFqeKh4kRdXd3t27cRQvv373cmeUWn0/G7dg9fa0RGRtrMetFoNFAStqmjUVFRuJWg0WhuCWlzOfGQw+E4az0oFAqMDoRCoVKpxG0O8XJv2f7gzCZXydi6nPFEcYJGo8lkMuIPs7eqzub0I5fLfX2zfuIM4Ls51wJszmdPlmrTIuBXzmxaFMiCkQh4jgDJGc+xIlOSCLxBgOQMWQ9IBN4NAZIz74YXmZpEgOQMWQdIBN4NgU3EGXJW7d0enbvUW3cO3WHJ3d2u/85vCs5sZoUN/z0Kb+fksOZt3Uhvw7N2fxvPmU2usOEaWrPZLBAIXKfZqLProQdW8FiPE4fXYs94LR2OcZgeR24UjPb5bjBn4Gs0eHHL4XCGh4eXlpbUajV85cHhcH7++eerV6/alxvH4H3OlvdD7+3txQtpcPzc3JxGoykuLnb22UV4eLhMJjOsBIVC4ewDE5yj5waW6XBxCakNgllxoTXm/Hf78aGN4QJDP5/aSM7gr57Xo7CB96Cl0+k3btyYmpqCdW84nkKhJCUl6XQ6LEdkA3FPT8+9e/f27dvHYrEaGhrUajXektYmJfHQGQOJafCyNmIk0abRaKQ2COYGcS0djsQGEbeNtTeSM15R2MDcQAhFRUVZrVZoKIjxCKHq6mq8lt0GcZPJJBaLIZLJZLa3t8N3ijExMV1dXctb0qpUKqFQiBCCvZmuXbs2MTEBDdr8/LxQKGSz2TMzM3l5eVqtFmugEGU6bHLEh6Q2CF5/Gnn4nwEfBAR8EPDxru1cPgqJ/QrYcqM3MSAgoFLpWJoQI+lPYyM54xWFDYPBIJFIWCwWm82uqqpqa2uDFsCGM+3t7dXV1Q6RvXv3rlKpFAqFxOYFVqpVVFQwGIysrCyj0bh3717gTHl5OV4vhDljtVqrqqpYLJZIJDKbzbAixW07Q2qDYM4QhRbcaoM4fI5+i9xIzhDVAl6/fj04OMjhcC5fvszhcAYHB1+/fr20tIQQio6OfvnypTNEDAZDX1+fXC5XKBRqtbq2thbv29zU1FRYWHjp0qV79+6NjIyEhYU5dEKlUvPy8mBtxp07d+CTcoFAYDabMTekUil7JWBVCnBF5AyoVSCEWltbm5qaiMunHeZLaoNc/iHWIWdca4M4BNOfkZuFM0srYQ0KG8T2hEqldnZ2VlVVLYueGAyGurq6s2fPnjlzRigUerKggsPhyGQypVIZGBgokUjGx8dtnoT9vpkOOVNaWtrZ2emWM6Q2iDPOKBbFLrRBbB6K/w83kjNeUdggcgYhdP369e7ubuBMRkaGW0BjY2NlMhnulbFYLKvVmpCQAO0MZhqfz8d9M9yeIIQccubu3bsymcwtZ0htEBecKes/tP2jbamFwYyo3TCwcfso/ZZgIzmzfoUNG25wudynT59WVlbaxLtAk8Vi6fX66urqkJAQOp1eVFS0POhnsVg0Gm10dLS0tJROp584cWJmZiY4ONh1O1NRUcFkMpOTk41GI8i7YJkO+wKQ2iD4/Qw2DmczGFG7mwwCIMkexmcf79p+6mYEyZn/1R8817xmhQ3gxsLCwvz8/Nzc3OTkZF1dHR7PeNLOIIRiYmLa2tr0er3RaOzu7gb1s2XPPB6vu7t7ZmZGqVSCoIlrziyvUx8fHweJSpiHwDId/7vnVYvUBsFUwUbFQNKXez7ZjT4FkoiLQj/c/kGT/k8KrSK38f9vZDuDEIJ3mrAYXSQSvXjxAiH04sULmHeKjIx0+07znSA0mUzzhGCvgfJO3nBiey7hU2D4KF+bXGwOoeZt3b8utEFs7tTPhxvMmc2vsOHJ83DLGU+ceD3N1mVL20Ja1dMju7746JLiAL4Lr+OzZocbz5lNrrDhCbIkZ3DN9orhiTaIJ8/FR2k2BWfg3si1AD56xqRb7yKwiTjj3RsjvZEI+AgBkjM+ApZ0+94i8P8B3QEpxRBLLJ8AAAAASUVORK5CYII=;" vertex="1" parent="1">
          <mxGeometry x="310" y="223" width="273" height="127" as="geometry" />
        </mxCell>
      </root>
    </mxGraphModel>
  </diagram>
</mxfile>
